<mxfile host="app.diagrams.net" agent="Mozilla/5.0 (Macintosh; Intel Mac OS X 10_15_7) AppleWebKit/537.36 (KHTML, like Gecko) Chrome/123.0.0.0 Safari/537.36" version="24.7.6">
  <diagram name="Page-1" id="RCbGUIcbfS4RPRtHN16q">
    <mxGraphModel dx="1194" dy="547" grid="1" gridSize="10" guides="1" tooltips="1" connect="1" arrows="1" fold="1" page="1" pageScale="1" pageWidth="827" pageHeight="1169" math="0" shadow="0">
      <root>
        <mxCell id="0" />
        <mxCell id="1" parent="0" />
        <mxCell id="FsOBN7YNcrXlZLE7wFAp-1" value="Front-end webpage:&lt;div&gt;HTML + CSS + JS&lt;/div&gt;" style="whiteSpace=wrap;html=1;aspect=fixed;" vertex="1" parent="1">
          <mxGeometry x="120" y="162" width="120" height="120" as="geometry" />
        </mxCell>
        <mxCell id="FsOBN7YNcrXlZLE7wFAp-2" value="Backend server:&lt;div&gt;Golang&lt;/div&gt;" style="whiteSpace=wrap;html=1;aspect=fixed;" vertex="1" parent="1">
          <mxGeometry x="540" y="160" width="120" height="120" as="geometry" />
        </mxCell>
        <mxCell id="FsOBN7YNcrXlZLE7wFAp-3" value="MYSQL DB" style="shape=cylinder3;whiteSpace=wrap;html=1;boundedLbl=1;backgroundOutline=1;size=15;" vertex="1" parent="1">
          <mxGeometry x="730" y="270" width="60" height="80" as="geometry" />
        </mxCell>
        <mxCell id="FsOBN7YNcrXlZLE7wFAp-4" value="" style="endArrow=none;html=1;rounded=0;entryX=0;entryY=0.5;entryDx=0;entryDy=0;entryPerimeter=0;exitX=1;exitY=0.75;exitDx=0;exitDy=0;" edge="1" parent="1" source="FsOBN7YNcrXlZLE7wFAp-2" target="FsOBN7YNcrXlZLE7wFAp-3">
          <mxGeometry width="50" height="50" relative="1" as="geometry">
            <mxPoint x="410" y="310" as="sourcePoint" />
            <mxPoint x="460" y="260" as="targetPoint" />
          </mxGeometry>
        </mxCell>
        <mxCell id="FsOBN7YNcrXlZLE7wFAp-5" value="APIs" style="ellipse;whiteSpace=wrap;html=1;" vertex="1" parent="1">
          <mxGeometry x="330" y="185" width="120" height="75" as="geometry" />
        </mxCell>
        <mxCell id="FsOBN7YNcrXlZLE7wFAp-6" value="" style="endArrow=none;html=1;rounded=0;exitX=1;exitY=0.5;exitDx=0;exitDy=0;entryX=0;entryY=0.5;entryDx=0;entryDy=0;" edge="1" parent="1" source="FsOBN7YNcrXlZLE7wFAp-1" target="FsOBN7YNcrXlZLE7wFAp-5">
          <mxGeometry width="50" height="50" relative="1" as="geometry">
            <mxPoint x="390" y="310" as="sourcePoint" />
            <mxPoint x="440" y="260" as="targetPoint" />
          </mxGeometry>
        </mxCell>
        <mxCell id="FsOBN7YNcrXlZLE7wFAp-7" value="" style="endArrow=none;html=1;rounded=0;exitX=1;exitY=0.5;exitDx=0;exitDy=0;entryX=0;entryY=0.5;entryDx=0;entryDy=0;" edge="1" parent="1">
          <mxGeometry width="50" height="50" relative="1" as="geometry">
            <mxPoint x="450" y="219.5" as="sourcePoint" />
            <mxPoint x="540" y="219.5" as="targetPoint" />
          </mxGeometry>
        </mxCell>
      </root>
    </mxGraphModel>
  </diagram>
</mxfile>
